<?xml version="1.0" encoding="utf-8" standalone="no"?>
<!DOCTYPE svg PUBLIC "-//W3C//DTD SVG 1.1//EN"
  "http://www.w3.org/Graphics/SVG/1.1/DTD/svg11.dtd">
<svg xmlns:xlink="http://www.w3.org/1999/xlink" width="202.32pt" height="288.72pt" viewBox="0 0 202.32 288.72" xmlns="http://www.w3.org/2000/svg" version="1.1">
 <metadata>
  <rdf:RDF xmlns:dc="http://purl.org/dc/elements/1.1/" xmlns:cc="http://creativecommons.org/ns#" xmlns:rdf="http://www.w3.org/1999/02/22-rdf-syntax-ns#">
   <cc:Work>
    <dc:type rdf:resource="http://purl.org/dc/dcmitype/StillImage"/>
    <dc:date>2025-11-11T14:26:37.389769</dc:date>
    <dc:format>image/svg+xml</dc:format>
    <dc:creator>
     <cc:Agent>
      <dc:title>Matplotlib v3.10.6, https://matplotlib.org/</dc:title>
     </cc:Agent>
    </dc:creator>
   </cc:Work>
  </rdf:RDF>
 </metadata>
 <defs>
  <style type="text/css">*{stroke-linejoin: round; stroke-linecap: butt}</style>
 </defs>
 <g id="figure_1">
  <g id="patch_1">
   <path d="M 0 288.72 
L 202.32 288.72 
L 202.32 0 
L 0 0 
z
" style="fill: #ffffff"/>
  </g>
  <g id="axes_1">
   <g id="patch_2">
    <path d="M 41.578125 261.81125 
L 195.12 261.81125 
L 195.12 27.546875 
L 41.578125 27.546875 
z
" style="fill: #ffffff"/>
   </g>
   <g id="FillBetweenPolyCollection_1">
    <defs>
     <path id="m0568d94591" d="M 110.671969 -36.623885 
L 49.255219 -36.623885 
L 49.545007 -38.586538 
L 50.412554 -40.549192 
L 51.80685 -42.511845 
L 53.648587 -44.474499 
L 55.83746 -46.437152 
L 58.261022 -48.399806 
L 60.804017 -50.362459 
L 63.357119 -52.325112 
L 65.82418 -54.287766 
L 68.127399 -56.250419 
L 70.210122 -58.213073 
L 72.03735 -60.175726 
L 73.594279 -62.13838 
L 74.883385 -64.101033 
L 75.920642 -66.063687 
L 76.731447 -68.02634 
L 77.346712 -69.988994 
L 77.79948 -71.951647 
L 78.12224 -73.914301 
L 78.345024 -75.876954 
L 78.494217 -77.839608 
L 78.591989 -79.802261 
L 78.656194 -81.764915 
L 78.700602 -83.727568 
L 78.735325 -85.690221 
L 78.767348 -87.652875 
L 78.80108 -89.615528 
L 78.838891 -91.578182 
L 78.88161 -93.540835 
L 78.928958 -95.503489 
L 78.979922 -97.466142 
L 79.033071 -99.428796 
L 79.086807 -101.391449 
L 79.139553 -103.354103 
L 79.189889 -105.316756 
L 79.236632 -107.27941 
L 79.278875 -109.242063 
L 79.315982 -111.204717 
L 79.347565 -113.16737 
L 79.373442 -115.130024 
L 79.393587 -117.092677 
L 79.40809 -119.055331 
L 79.417115 -121.017984 
L 79.420883 -122.980637 
L 79.419653 -124.943291 
L 79.413725 -126.905944 
L 79.403437 -128.868598 
L 79.389175 -130.831251 
L 79.371367 -132.793905 
L 79.350481 -134.756558 
L 79.327004 -136.719212 
L 79.301417 -138.681865 
L 79.274153 -140.644519 
L 79.245558 -142.607172 
L 79.215836 -144.569826 
L 79.185001 -146.532479 
L 79.152836 -148.495133 
L 79.118845 -150.457786 
L 79.082231 -152.42044 
L 79.041875 -154.383093 
L 78.996334 -156.345746 
L 78.943854 -158.3084 
L 78.882401 -160.271053 
L 78.809709 -162.233707 
L 78.723348 -164.19636 
L 78.620826 -166.159014 
L 78.499703 -168.121667 
L 78.357738 -170.084321 
L 78.193062 -172.046974 
L 78.004366 -174.009628 
L 77.791102 -175.972281 
L 77.553681 -177.934935 
L 77.293651 -179.897588 
L 77.013838 -181.860242 
L 76.718425 -183.822895 
L 76.412957 -185.785549 
L 76.104243 -187.748202 
L 75.800174 -189.710856 
L 75.509426 -191.673509 
L 75.24109 -193.636162 
L 75.004231 -195.598816 
L 74.80741 -197.561469 
L 74.658215 -199.524123 
L 74.562823 -201.486776 
L 74.525632 -203.44943 
L 74.548999 -205.412083 
L 74.633098 -207.374737 
L 74.775905 -209.33739 
L 74.973316 -211.300044 
L 75.219385 -213.262697 
L 75.506653 -215.225351 
L 75.826558 -217.188004 
L 76.169879 -219.150658 
L 76.527191 -221.113311 
L 76.889305 -223.075965 
L 77.247656 -225.038618 
L 77.59463 -227.001271 
L 77.923802 -228.963925 
L 78.230095 -230.926578 
L 81.697092 -230.926578 
L 81.697092 -230.926578 
L 82.003386 -228.963925 
L 82.332558 -227.001271 
L 82.679531 -225.038618 
L 83.037883 -223.075965 
L 83.399997 -221.113311 
L 83.757309 -219.150658 
L 84.100629 -217.188004 
L 84.420535 -215.225351 
L 84.707803 -213.262697 
L 84.953872 -211.300044 
L 85.151283 -209.33739 
L 85.29409 -207.374737 
L 85.378188 -205.412083 
L 85.401556 -203.44943 
L 85.364364 -201.486776 
L 85.268972 -199.524123 
L 85.119778 -197.561469 
L 84.922957 -195.598816 
L 84.686097 -193.636162 
L 84.417761 -191.673509 
L 84.127014 -189.710856 
L 83.822944 -187.748202 
L 83.514231 -185.785549 
L 83.208762 -183.822895 
L 82.91335 -181.860242 
L 82.633537 -179.897588 
L 82.373507 -177.934935 
L 82.136086 -175.972281 
L 81.922822 -174.009628 
L 81.734126 -172.046974 
L 81.56945 -170.084321 
L 81.427485 -168.121667 
L 81.306361 -166.159014 
L 81.203839 -164.19636 
L 81.117479 -162.233707 
L 81.044786 -160.271053 
L 80.983333 -158.3084 
L 80.930854 -156.345746 
L 80.885313 -154.383093 
L 80.844957 -152.42044 
L 80.808342 -150.457786 
L 80.774351 -148.495133 
L 80.742186 -146.532479 
L 80.711352 -144.569826 
L 80.68163 -142.607172 
L 80.653034 -140.644519 
L 80.625771 -138.681865 
L 80.600183 -136.719212 
L 80.576707 -134.756558 
L 80.555821 -132.793905 
L 80.538013 -130.831251 
L 80.52375 -128.868598 
L 80.513463 -126.905944 
L 80.507534 -124.943291 
L 80.506304 -122.980637 
L 80.510072 -121.017984 
L 80.519098 -119.055331 
L 80.5336 -117.092677 
L 80.553746 -115.130024 
L 80.579623 -113.16737 
L 80.611206 -111.204717 
L 80.648313 -109.242063 
L 80.690555 -107.27941 
L 80.737299 -105.316756 
L 80.787634 -103.354103 
L 80.84038 -101.391449 
L 80.894116 -99.428796 
L 80.947266 -97.466142 
L 80.99823 -95.503489 
L 81.045577 -93.540835 
L 81.088296 -91.578182 
L 81.126108 -89.615528 
L 81.159839 -87.652875 
L 81.191862 -85.690221 
L 81.226586 -83.727568 
L 81.270994 -81.764915 
L 81.335199 -79.802261 
L 81.43297 -77.839608 
L 81.582163 -75.876954 
L 81.804947 -73.914301 
L 82.127708 -71.951647 
L 82.580475 -69.988994 
L 83.195741 -68.02634 
L 84.006546 -66.063687 
L 85.043803 -64.101033 
L 86.332908 -62.13838 
L 87.889838 -60.175726 
L 89.717066 -58.213073 
L 91.799789 -56.250419 
L 94.103007 -54.287766 
L 96.570068 -52.325112 
L 99.12317 -50.362459 
L 101.666166 -48.399806 
L 104.089728 -46.437152 
L 106.2786 -44.474499 
L 108.120337 -42.511845 
L 109.514633 -40.549192 
L 110.38218 -38.586538 
L 110.671969 -36.623885 
z
" style="stroke: #575757; stroke-width: 1.25"/>
    </defs>
    <g clip-path="url(#p845061c6ce)">
     <use xlink:href="#m0568d94591" x="0" y="288.72" style="fill: #e2a673; stroke: #575757; stroke-width: 1.25"/>
    </g>
   </g>
   <g id="FillBetweenPolyCollection_2">
    <defs>
     <path id="m83c100d412" d="M 187.442906 -36.623885 
L 126.026156 -36.623885 
L 126.749561 -38.350809 
L 128.819301 -40.077734 
L 131.956061 -41.804659 
L 135.763762 -43.531583 
L 139.811235 -45.258508 
L 143.710652 -46.985432 
L 147.173563 -48.712357 
L 150.035024 -50.439282 
L 152.247285 -52.166206 
L 153.852488 -53.893131 
L 154.946865 -55.620056 
L 155.647267 -57.34698 
L 156.06652 -59.073905 
L 156.299446 -60.800829 
L 156.417992 -62.527754 
L 156.472364 -64.254679 
L 156.495038 -65.981603 
L 156.505414 -67.708528 
L 156.513876 -69.435453 
L 156.524872 -71.162377 
L 156.53911 -72.889302 
L 156.555114 -74.616227 
L 156.570378 -76.343151 
L 156.582266 -78.070076 
L 156.588693 -79.797 
L 156.588586 -81.523925 
L 156.582094 -83.25085 
L 156.570542 -84.977774 
L 156.556141 -86.704699 
L 156.541535 -88.431624 
L 156.529262 -90.158548 
L 156.521223 -91.885473 
L 156.518279 -93.612397 
L 156.52001 -95.339322 
L 156.524707 -97.066247 
L 156.529575 -98.793171 
L 156.531128 -100.520096 
L 156.525737 -102.247021 
L 156.510252 -103.973945 
L 156.482624 -105.70087 
L 156.442418 -107.427794 
L 156.391122 -109.154719 
L 156.332155 -110.881644 
L 156.270518 -112.608568 
L 156.212118 -114.335493 
L 156.162864 -116.062418 
L 156.127702 -117.789342 
L 156.109807 -119.516267 
L 156.110098 -121.243192 
L 156.1272 -122.970116 
L 156.15782 -124.697041 
L 156.197441 -126.423965 
L 156.241137 -128.15089 
L 156.284301 -129.877815 
L 156.323159 -131.604739 
L 156.354979 -133.331664 
L 156.378004 -135.058589 
L 156.391219 -136.785513 
L 156.39406 -138.512438 
L 156.386204 -140.239362 
L 156.367525 -141.966287 
L 156.338222 -143.693212 
L 156.299084 -145.420136 
L 156.251771 -147.147061 
L 156.198988 -148.873986 
L 156.144429 -150.60091 
L 156.09245 -152.327835 
L 156.047509 -154.054759 
L 156.013494 -155.781684 
L 155.993117 -157.508609 
L 155.987533 -159.235533 
L 155.996283 -160.962458 
L 156.017566 -162.689383 
L 156.048729 -164.416307 
L 156.086835 -166.143232 
L 156.129126 -167.870156 
L 156.173302 -169.597081 
L 156.217583 -171.324006 
L 156.260626 -173.05093 
L 156.3014 -174.777855 
L 156.33911 -176.50478 
L 156.373215 -178.231704 
L 156.403493 -179.958629 
L 156.430103 -181.685554 
L 156.45356 -183.412478 
L 156.474607 -185.139403 
L 156.494006 -186.866327 
L 156.512321 -188.593252 
L 156.529788 -190.320177 
L 156.546296 -192.047101 
L 156.561506 -193.774026 
L 156.575048 -195.500951 
L 156.586723 -197.227875 
L 156.59664 -198.9548 
L 156.605243 -200.681724 
L 156.61322 -202.408649 
L 156.62134 -204.135574 
L 156.630249 -205.862498 
L 156.640316 -207.589423 
L 156.828747 -207.589423 
L 156.828747 -207.589423 
L 156.838814 -205.862498 
L 156.847722 -204.135574 
L 156.855842 -202.408649 
L 156.86382 -200.681724 
L 156.872422 -198.9548 
L 156.882339 -197.227875 
L 156.894015 -195.500951 
L 156.907557 -193.774026 
L 156.922767 -192.047101 
L 156.939274 -190.320177 
L 156.956741 -188.593252 
L 156.975057 -186.866327 
L 156.994455 -185.139403 
L 157.015503 -183.412478 
L 157.03896 -181.685554 
L 157.06557 -179.958629 
L 157.095847 -178.231704 
L 157.129952 -176.50478 
L 157.167663 -174.777855 
L 157.208436 -173.05093 
L 157.251479 -171.324006 
L 157.29576 -169.597081 
L 157.339936 -167.870156 
L 157.382227 -166.143232 
L 157.420333 -164.416307 
L 157.451497 -162.689383 
L 157.472779 -160.962458 
L 157.481529 -159.235533 
L 157.475945 -157.508609 
L 157.455568 -155.781684 
L 157.421554 -154.054759 
L 157.376613 -152.327835 
L 157.324634 -150.60091 
L 157.270075 -148.873986 
L 157.217292 -147.147061 
L 157.169979 -145.420136 
L 157.130841 -143.693212 
L 157.101538 -141.966287 
L 157.082858 -140.239362 
L 157.075003 -138.512438 
L 157.077844 -136.785513 
L 157.091059 -135.058589 
L 157.114084 -133.331664 
L 157.145903 -131.604739 
L 157.184762 -129.877815 
L 157.227926 -128.15089 
L 157.271621 -126.423965 
L 157.311243 -124.697041 
L 157.341863 -122.970116 
L 157.358964 -121.243192 
L 157.359256 -119.516267 
L 157.341361 -117.789342 
L 157.306199 -116.062418 
L 157.256945 -114.335493 
L 157.198545 -112.608568 
L 157.136907 -110.881644 
L 157.07794 -109.154719 
L 157.026645 -107.427794 
L 156.986438 -105.70087 
L 156.95881 -103.973945 
L 156.943326 -102.247021 
L 156.937935 -100.520096 
L 156.939488 -98.793171 
L 156.944355 -97.066247 
L 156.949053 -95.339322 
L 156.950784 -93.612397 
L 156.947839 -91.885473 
L 156.939801 -90.158548 
L 156.927527 -88.431624 
L 156.912922 -86.704699 
L 156.898521 -84.977774 
L 156.886968 -83.25085 
L 156.880477 -81.523925 
L 156.88037 -79.797 
L 156.886797 -78.070076 
L 156.898685 -76.343151 
L 156.913949 -74.616227 
L 156.929953 -72.889302 
L 156.944191 -71.162377 
L 156.955187 -69.435453 
L 156.963648 -67.708528 
L 156.974024 -65.981603 
L 156.996698 -64.254679 
L 157.05107 -62.527754 
L 157.169617 -60.800829 
L 157.402542 -59.073905 
L 157.821795 -57.34698 
L 158.522197 -55.620056 
L 159.616575 -53.893131 
L 161.221777 -52.166206 
L 163.434038 -50.439282 
L 166.2955 -48.712357 
L 169.758411 -46.985432 
L 173.657827 -45.258508 
L 177.7053 -43.531583 
L 181.513002 -41.804659 
L 184.649761 -40.077734 
L 186.719501 -38.350809 
L 187.442906 -36.623885 
z
" style="stroke: #575757; stroke-width: 1.25"/>
    </defs>
    <g clip-path="url(#p845061c6ce)">
     <use xlink:href="#m83c100d412" x="0" y="288.72" style="fill: #5573cd; stroke: #575757; stroke-width: 1.25"/>
    </g>
   </g>
   <g id="patch_3">
    <path d="M 79.963594 51.238102 
L 79.963594 47.960442 
L 156.734531 47.960442 
L 156.734531 51.238102 
" style="fill: none; stroke: #000000; stroke-linejoin: miter"/>
   </g>
   <g id="matplotlib.axis_1">
    <g id="xtick_1">
     <g id="line2d_1">
      <defs>
       <path id="m71e2e0e3d4" d="M 0 0 
L 0 5 
" style="stroke: #000000"/>
      </defs>
      <g>
       <use xlink:href="#m71e2e0e3d4" x="79.963594" y="261.81125" style="stroke: #000000"/>
      </g>
     </g>
     <g id="text_1">
      <text style="font-size: 12px; font-family: 'Helvetica'; text-anchor: middle" x="79.963594" y="278.9475" transform="rotate(-0 79.963594 278.9475)">healthy</text>
     </g>
    </g>
    <g id="xtick_2">
     <g id="line2d_2">
      <g>
       <use xlink:href="#m71e2e0e3d4" x="156.734531" y="261.81125" style="stroke: #000000"/>
      </g>
     </g>
     <g id="text_2">
      <text style="font-size: 12px; font-family: 'Helvetica'; text-anchor: middle" x="156.734531" y="278.919375" transform="rotate(-0 156.734531 278.919375)">disease</text>
     </g>
    </g>
   </g>
   <g id="matplotlib.axis_2">
    <g id="ytick_1">
     <g id="line2d_3">
      <defs>
       <path id="m9ed006ef18" d="M 0 0 
L -5 0 
" style="stroke: #000000"/>
      </defs>
      <g>
       <use xlink:href="#m9ed006ef18" x="41.578125" y="252.096115" style="stroke: #000000"/>
      </g>
     </g>
     <g id="text_3">
      <text style="font-size: 12px; font-family: 'Helvetica'; text-anchor: end" x="33.078125" y="256.400178" transform="rotate(-0 33.078125 256.400178)">0</text>
     </g>
    </g>
    <g id="ytick_2">
     <g id="line2d_4">
      <g>
       <use xlink:href="#m9ed006ef18" x="41.578125" y="212.500407" style="stroke: #000000"/>
      </g>
     </g>
     <g id="text_4">
      <text style="font-size: 12px; font-family: 'Helvetica'; text-anchor: end" x="33.078125" y="216.80447" transform="rotate(-0 33.078125 216.80447)">1</text>
     </g>
    </g>
    <g id="ytick_3">
     <g id="line2d_5">
      <g>
       <use xlink:href="#m9ed006ef18" x="41.578125" y="172.904699" style="stroke: #000000"/>
      </g>
     </g>
     <g id="text_5">
      <text style="font-size: 12px; font-family: 'Helvetica'; text-anchor: end" x="33.078125" y="177.208762" transform="rotate(-0 33.078125 177.208762)">2</text>
     </g>
    </g>
    <g id="ytick_4">
     <g id="line2d_6">
      <g>
       <use xlink:href="#m9ed006ef18" x="41.578125" y="133.308991" style="stroke: #000000"/>
      </g>
     </g>
     <g id="text_6">
      <text style="font-size: 12px; font-family: 'Helvetica'; text-anchor: end" x="33.078125" y="137.613054" transform="rotate(-0 33.078125 137.613054)">3</text>
     </g>
    </g>
    <g id="ytick_5">
     <g id="line2d_7">
      <g>
       <use xlink:href="#m9ed006ef18" x="41.578125" y="93.713283" style="stroke: #000000"/>
      </g>
     </g>
     <g id="text_7">
      <text style="font-size: 12px; font-family: 'Helvetica'; text-anchor: end" x="33.078125" y="98.017345" transform="rotate(-0 33.078125 98.017345)">4</text>
     </g>
    </g>
    <g id="ytick_6">
     <g id="line2d_8">
      <g>
       <use xlink:href="#m9ed006ef18" x="41.578125" y="54.117575" style="stroke: #000000"/>
      </g>
     </g>
     <g id="text_8">
      <text style="font-size: 12px; font-family: 'Helvetica'; text-anchor: end" x="33.078125" y="58.421637" transform="rotate(-0 33.078125 58.421637)">5</text>
     </g>
    </g>
    <g id="text_9">
     <text style="font-weight: 700; font-size: 16px; font-family: 'Helvetica'; text-anchor: middle" x="18.865" y="144.679062" transform="rotate(-90 18.865 144.679062)">LogMean(nUMI)</text>
    </g>
   </g>
   <g id="line2d_9">
    <path d="M 79.963594 252.096115 
L 79.963594 252.096115 
" clip-path="url(#p845061c6ce)" style="fill: none; stroke: #575757; stroke-width: 1.875; stroke-linecap: square"/>
   </g>
   <g id="line2d_10">
    <path d="M 79.963594 252.096115 
L 79.963594 252.096115 
" clip-path="url(#p845061c6ce)" style="fill: none; stroke: #575757; stroke-width: 5.625; stroke-linecap: square"/>
   </g>
   <g id="line2d_11">
    <path d="M 79.963594 252.096115 
" clip-path="url(#p845061c6ce)" style="fill: none; stroke: #575757; stroke-width: 1.5; stroke-linecap: square"/>
    <defs>
     <path id="m596528fe68" d="M 2.34375 0 
L -2.34375 -0 
" style="stroke: #ffffff; stroke-width: 1.125"/>
    </defs>
    <g clip-path="url(#p845061c6ce)">
     <use xlink:href="#m596528fe68" x="79.963594" y="252.096115" style="fill: #ffffff; stroke: #ffffff; stroke-width: 1.125"/>
    </g>
   </g>
   <g id="line2d_12">
    <path d="M 156.734531 252.096115 
L 156.734531 252.096115 
" clip-path="url(#p845061c6ce)" style="fill: none; stroke: #575757; stroke-width: 1.875; stroke-linecap: square"/>
   </g>
   <g id="line2d_13">
    <path d="M 156.734531 252.096115 
L 156.734531 252.096115 
" clip-path="url(#p845061c6ce)" style="fill: none; stroke: #575757; stroke-width: 5.625; stroke-linecap: square"/>
   </g>
   <g id="line2d_14">
    <path d="M 156.734531 252.096115 
" clip-path="url(#p845061c6ce)" style="fill: none; stroke: #575757; stroke-width: 1.5; stroke-linecap: square"/>
    <g clip-path="url(#p845061c6ce)">
     <use xlink:href="#m596528fe68" x="156.734531" y="252.096115" style="fill: #ffffff; stroke: #ffffff; stroke-width: 1.125"/>
    </g>
   </g>
   <g id="patch_4">
    <path d="M 41.578125 261.81125 
L 41.578125 27.546875 
" style="fill: none; stroke: #000000; stroke-width: 1.2; stroke-linejoin: miter; stroke-linecap: square"/>
   </g>
   <g id="patch_5">
    <path d="M 41.578125 261.81125 
L 195.12 261.81125 
" style="fill: none; stroke: #000000; stroke-width: 1.2; stroke-linejoin: miter; stroke-linecap: square"/>
   </g>
   <g id="PathCollection_1">
    <defs>
     <path id="mabd970eed8" d="M 0 1 
C 0.265203 1 0.51958 0.894634 0.707107 0.707107 
C 0.894634 0.51958 1 0.265203 1 0 
C 1 -0.265203 0.894634 -0.51958 0.707107 -0.707107 
C 0.51958 -0.894634 0.265203 -1 0 -1 
C -0.265203 -1 -0.51958 -0.894634 -0.707107 -0.707107 
C -0.894634 -0.51958 -1 -0.265203 -1 0 
C -1 0.265203 -0.894634 0.51958 -0.707107 0.707107 
C -0.51958 0.894634 -0.265203 1 0 1 
z
"/>
    </defs>
    <g clip-path="url(#p845061c6ce)">
     <use xlink:href="#mabd970eed8" x="73.940065" y="194.207459"/>
     <use xlink:href="#mabd970eed8" x="78.173936" y="97.07015"/>
     <use xlink:href="#mabd970eed8" x="76.149886" y="87.803736"/>
     <use xlink:href="#mabd970eed8" x="87.614377" y="73.770557"/>
     <use xlink:href="#mabd970eed8" x="80.973944" y="89.910615"/>
     <use xlink:href="#mabd970eed8" x="75.102229" y="89.388695"/>
     <use xlink:href="#mabd970eed8" x="73.631022" y="80.607902"/>
     <use xlink:href="#mabd970eed8" x="86.247446" y="199.876834"/>
     <use xlink:href="#mabd970eed8" x="82.75933" y="220.958434"/>
     <use xlink:href="#mabd970eed8" x="75.259494" y="94.908243"/>
     <use xlink:href="#mabd970eed8" x="78.930795" y="201.16632"/>
     <use xlink:href="#mabd970eed8" x="80.016465" y="87.989786"/>
     <use xlink:href="#mabd970eed8" x="74.145172" y="80.836831"/>
     <use xlink:href="#mabd970eed8" x="80.044793" y="203.547989"/>
     <use xlink:href="#mabd970eed8" x="76.803057" y="86.478348"/>
     <use xlink:href="#mabd970eed8" x="72.341248" y="86.280705"/>
     <use xlink:href="#mabd970eed8" x="86.876874" y="84.484904"/>
     <use xlink:href="#mabd970eed8" x="85.520799" y="134.98371"/>
     <use xlink:href="#mabd970eed8" x="76.56547" y="97.4183"/>
     <use xlink:href="#mabd970eed8" x="76.749698" y="95.274406"/>
     <use xlink:href="#mabd970eed8" x="78.653508" y="91.538943"/>
     <use xlink:href="#mabd970eed8" x="86.652926" y="88.834358"/>
     <use xlink:href="#mabd970eed8" x="85.554741" y="110.850817"/>
     <use xlink:href="#mabd970eed8" x="86.342582" y="69.844126"/>
     <use xlink:href="#mabd970eed8" x="79.288446" y="204.870563"/>
     <use xlink:href="#mabd970eed8" x="86.608856" y="197.999087"/>
     <use xlink:href="#mabd970eed8" x="84.48329" y="168.482394"/>
     <use xlink:href="#mabd970eed8" x="75.733567" y="86.14314"/>
     <use xlink:href="#mabd970eed8" x="77.024413" y="145.050297"/>
     <use xlink:href="#mabd970eed8" x="73.152373" y="87.406599"/>
     <use xlink:href="#mabd970eed8" x="75.763765" y="221.472584"/>
     <use xlink:href="#mabd970eed8" x="81.452596" y="160.759289"/>
     <use xlink:href="#mabd970eed8" x="75.239529" y="211.964681"/>
     <use xlink:href="#mabd970eed8" x="81.1156" y="83.655211"/>
     <use xlink:href="#mabd970eed8" x="81.401942" y="76.779519"/>
     <use xlink:href="#mabd970eed8" x="73.175618" y="94.164041"/>
     <use xlink:href="#mabd970eed8" x="81.8905" y="103.517136"/>
     <use xlink:href="#mabd970eed8" x="73.187357" y="96.949587"/>
     <use xlink:href="#mabd970eed8" x="80.898612" y="70.475723"/>
     <use xlink:href="#mabd970eed8" x="86.720987" y="84.13023"/>
     <use xlink:href="#mabd970eed8" x="85.642971" y="68.057898"/>
     <use xlink:href="#mabd970eed8" x="87.505471" y="69.341465"/>
     <use xlink:href="#mabd970eed8" x="81.006397" y="72.819612"/>
     <use xlink:href="#mabd970eed8" x="85.522431" y="132.723897"/>
     <use xlink:href="#mabd970eed8" x="87.113381" y="83.799119"/>
     <use xlink:href="#mabd970eed8" x="83.876366" y="93.08869"/>
     <use xlink:href="#mabd970eed8" x="87.4993" y="71.78274"/>
     <use xlink:href="#mabd970eed8" x="87.015738" y="83.947238"/>
     <use xlink:href="#mabd970eed8" x="78.019652" y="154.616575"/>
     <use xlink:href="#mabd970eed8" x="81.612335" y="94.67533"/>
     <use xlink:href="#mabd970eed8" x="79.317273" y="198.836757"/>
     <use xlink:href="#mabd970eed8" x="75.497013" y="172.393429"/>
     <use xlink:href="#mabd970eed8" x="77.504274" y="100.415943"/>
     <use xlink:href="#mabd970eed8" x="78.148766" y="90.514759"/>
     <use xlink:href="#mabd970eed8" x="85.655696" y="67.345756"/>
     <use xlink:href="#mabd970eed8" x="82.59492" y="186.736236"/>
     <use xlink:href="#mabd970eed8" x="77.688885" y="179.19542"/>
     <use xlink:href="#mabd970eed8" x="76.205724" y="180.533023"/>
     <use xlink:href="#mabd970eed8" x="75.15911" y="83.930132"/>
     <use xlink:href="#mabd970eed8" x="83.847002" y="186.542435"/>
     <use xlink:href="#mabd970eed8" x="81.99812" y="71.144837"/>
     <use xlink:href="#mabd970eed8" x="83.218073" y="81.526279"/>
     <use xlink:href="#mabd970eed8" x="74.261281" y="86.972399"/>
     <use xlink:href="#mabd970eed8" x="83.192183" y="198.358136"/>
     <use xlink:href="#mabd970eed8" x="82.811981" y="199.924451"/>
     <use xlink:href="#mabd970eed8" x="77.817651" y="83.639275"/>
     <use xlink:href="#mabd970eed8" x="72.72042" y="220.534912"/>
     <use xlink:href="#mabd970eed8" x="77.820464" y="81.281755"/>
     <use xlink:href="#mabd970eed8" x="78.911767" y="102.541674"/>
     <use xlink:href="#mabd970eed8" x="76.694526" y="78.945702"/>
     <use xlink:href="#mabd970eed8" x="82.062056" y="80.31191"/>
     <use xlink:href="#mabd970eed8" x="78.058415" y="89.101822"/>
     <use xlink:href="#mabd970eed8" x="80.430498" y="92.090449"/>
     <use xlink:href="#mabd970eed8" x="76.67247" y="78.271208"/>
     <use xlink:href="#mabd970eed8" x="80.813204" y="125.35017"/>
     <use xlink:href="#mabd970eed8" x="72.497623" y="94.514816"/>
     <use xlink:href="#mabd970eed8" x="76.766877" y="83.983074"/>
     <use xlink:href="#mabd970eed8" x="79.686538" y="206.174918"/>
     <use xlink:href="#mabd970eed8" x="75.799108" y="84.55278"/>
     <use xlink:href="#mabd970eed8" x="81.888961" y="79.764634"/>
     <use xlink:href="#mabd970eed8" x="73.843919" y="84.175053"/>
     <use xlink:href="#mabd970eed8" x="74.398405" y="137.32824"/>
     <use xlink:href="#mabd970eed8" x="73.16977" y="73.893792"/>
     <use xlink:href="#mabd970eed8" x="72.823941" y="80.972583"/>
     <use xlink:href="#mabd970eed8" x="75.17457" y="93.222989"/>
     <use xlink:href="#mabd970eed8" x="82.340219" y="68.565053"/>
     <use xlink:href="#mabd970eed8" x="85.756663" y="119.875332"/>
     <use xlink:href="#mabd970eed8" x="74.246674" y="85.575812"/>
     <use xlink:href="#mabd970eed8" x="84.859086" y="61.518169"/>
     <use xlink:href="#mabd970eed8" x="84.192116" y="64.786061"/>
     <use xlink:href="#mabd970eed8" x="82.929871" y="72.197625"/>
     <use xlink:href="#mabd970eed8" x="76.280773" y="89.602557"/>
     <use xlink:href="#mabd970eed8" x="80.758172" y="131.533516"/>
     <use xlink:href="#mabd970eed8" x="82.432015" y="74.121606"/>
     <use xlink:href="#mabd970eed8" x="79.302041" y="78.502817"/>
     <use xlink:href="#mabd970eed8" x="86.850838" y="86.895517"/>
     <use xlink:href="#mabd970eed8" x="75.660637" y="136.112587"/>
     <use xlink:href="#mabd970eed8" x="83.146511" y="83.935929"/>
     <use xlink:href="#mabd970eed8" x="81.998618" y="68.000803"/>
     <use xlink:href="#mabd970eed8" x="86.722599" y="77.870672"/>
     <use xlink:href="#mabd970eed8" x="81.874974" y="95.079481"/>
     <use xlink:href="#mabd970eed8" x="80.506673" y="102.091256"/>
     <use xlink:href="#mabd970eed8" x="79.865136" y="204.535459"/>
     <use xlink:href="#mabd970eed8" x="79.262625" y="90.710911"/>
     <use xlink:href="#mabd970eed8" x="81.22014" y="81.218618"/>
     <use xlink:href="#mabd970eed8" x="76.335011" y="222.879841"/>
     <use xlink:href="#mabd970eed8" x="81.402523" y="108.38647"/>
     <use xlink:href="#mabd970eed8" x="78.492997" y="137.057764"/>
     <use xlink:href="#mabd970eed8" x="83.010145" y="145.823896"/>
     <use xlink:href="#mabd970eed8" x="74.628077" y="96.702731"/>
     <use xlink:href="#mabd970eed8" x="84.178778" y="199.956142"/>
     <use xlink:href="#mabd970eed8" x="79.950568" y="78.766769"/>
     <use xlink:href="#mabd970eed8" x="76.673897" y="87.229498"/>
     <use xlink:href="#mabd970eed8" x="82.26928" y="129.433991"/>
     <use xlink:href="#mabd970eed8" x="82.236861" y="99.420382"/>
     <use xlink:href="#mabd970eed8" x="76.523716" y="81.350292"/>
     <use xlink:href="#mabd970eed8" x="73.908457" y="63.856356"/>
     <use xlink:href="#mabd970eed8" x="73.552829" y="71.705065"/>
     <use xlink:href="#mabd970eed8" x="76.067143" y="97.167678"/>
     <use xlink:href="#mabd970eed8" x="77.061973" y="163.574327"/>
     <use xlink:href="#mabd970eed8" x="81.291614" y="100.696784"/>
     <use xlink:href="#mabd970eed8" x="78.152699" y="106.1639"/>
     <use xlink:href="#mabd970eed8" x="77.575707" y="80.658767"/>
     <use xlink:href="#mabd970eed8" x="80.675981" y="197.388215"/>
     <use xlink:href="#mabd970eed8" x="79.591233" y="96.606298"/>
     <use xlink:href="#mabd970eed8" x="77.685724" y="88.820443"/>
     <use xlink:href="#mabd970eed8" x="87.292153" y="87.269884"/>
     <use xlink:href="#mabd970eed8" x="77.286069" y="97.981219"/>
     <use xlink:href="#mabd970eed8" x="77.62107" y="81.785983"/>
     <use xlink:href="#mabd970eed8" x="83.661544" y="81.819817"/>
     <use xlink:href="#mabd970eed8" x="78.537076" y="84.481109"/>
     <use xlink:href="#mabd970eed8" x="79.942885" y="75.472615"/>
     <use xlink:href="#mabd970eed8" x="75.346353" y="84.751141"/>
     <use xlink:href="#mabd970eed8" x="79.648856" y="84.260035"/>
     <use xlink:href="#mabd970eed8" x="82.838448" y="138.374354"/>
     <use xlink:href="#mabd970eed8" x="80.928453" y="113.064656"/>
     <use xlink:href="#mabd970eed8" x="78.633588" y="210.898682"/>
     <use xlink:href="#mabd970eed8" x="84.136478" y="86.202746"/>
     <use xlink:href="#mabd970eed8" x="72.962817" y="110.585024"/>
     <use xlink:href="#mabd970eed8" x="78.829409" y="111.041616"/>
     <use xlink:href="#mabd970eed8" x="82.387163" y="95.640663"/>
     <use xlink:href="#mabd970eed8" x="82.647016" y="120.281663"/>
     <use xlink:href="#mabd970eed8" x="78.708166" y="69.34526"/>
     <use xlink:href="#mabd970eed8" x="83.65901" y="129.249592"/>
     <use xlink:href="#mabd970eed8" x="80.455403" y="89.906423"/>
     <use xlink:href="#mabd970eed8" x="82.925274" y="134.512372"/>
     <use xlink:href="#mabd970eed8" x="75.159789" y="131.983377"/>
     <use xlink:href="#mabd970eed8" x="74.356036" y="114.345938"/>
     <use xlink:href="#mabd970eed8" x="74.483798" y="82.640769"/>
     <use xlink:href="#mabd970eed8" x="82.294495" y="90.170545"/>
     <use xlink:href="#mabd970eed8" x="73.621449" y="207.037214"/>
     <use xlink:href="#mabd970eed8" x="85.004781" y="93.857399"/>
     <use xlink:href="#mabd970eed8" x="80.004503" y="73.389771"/>
     <use xlink:href="#mabd970eed8" x="84.569705" y="85.977103"/>
     <use xlink:href="#mabd970eed8" x="76.334529" y="69.019662"/>
     <use xlink:href="#mabd970eed8" x="76.537684" y="83.433117"/>
     <use xlink:href="#mabd970eed8" x="84.193223" y="126.549368"/>
     <use xlink:href="#mabd970eed8" x="74.295717" y="77.22195"/>
     <use xlink:href="#mabd970eed8" x="72.729379" y="89.415544"/>
     <use xlink:href="#mabd970eed8" x="81.352546" y="89.036476"/>
     <use xlink:href="#mabd970eed8" x="86.63486" y="78.198932"/>
     <use xlink:href="#mabd970eed8" x="84.08879" y="202.513279"/>
     <use xlink:href="#mabd970eed8" x="78.240147" y="203.071232"/>
     <use xlink:href="#mabd970eed8" x="78.512212" y="86.537029"/>
     <use xlink:href="#mabd970eed8" x="75.799458" y="138.114933"/>
     <use xlink:href="#mabd970eed8" x="82.732365" y="97.402544"/>
     <use xlink:href="#mabd970eed8" x="77.256818" y="57.793422"/>
     <use xlink:href="#mabd970eed8" x="74.721605" y="212.732173"/>
     <use xlink:href="#mabd970eed8" x="73.707324" y="107.992996"/>
     <use xlink:href="#mabd970eed8" x="74.491339" y="171.756431"/>
     <use xlink:href="#mabd970eed8" x="83.348182" y="88.43269"/>
     <use xlink:href="#mabd970eed8" x="83.872001" y="88.27024"/>
     <use xlink:href="#mabd970eed8" x="80.548275" y="110.562216"/>
     <use xlink:href="#mabd970eed8" x="77.634378" y="81.691089"/>
     <use xlink:href="#mabd970eed8" x="80.853216" y="71.218509"/>
     <use xlink:href="#mabd970eed8" x="76.177602" y="76.322001"/>
     <use xlink:href="#mabd970eed8" x="74.172127" y="91.694067"/>
     <use xlink:href="#mabd970eed8" x="78.332075" y="83.596208"/>
     <use xlink:href="#mabd970eed8" x="76.130444" y="91.898526"/>
     <use xlink:href="#mabd970eed8" x="76.872858" y="207.471848"/>
     <use xlink:href="#mabd970eed8" x="77.790258" y="92.868334"/>
     <use xlink:href="#mabd970eed8" x="81.524354" y="92.685436"/>
     <use xlink:href="#mabd970eed8" x="80.082953" y="200.043064"/>
     <use xlink:href="#mabd970eed8" x="75.745678" y="96.816383"/>
     <use xlink:href="#mabd970eed8" x="75.561351" y="193.563981"/>
     <use xlink:href="#mabd970eed8" x="77.073455" y="89.979586"/>
     <use xlink:href="#mabd970eed8" x="81.098456" y="157.57891"/>
     <use xlink:href="#mabd970eed8" x="78.097799" y="76.791848"/>
     <use xlink:href="#mabd970eed8" x="72.823325" y="87.143666"/>
     <use xlink:href="#mabd970eed8" x="77.012619" y="77.780668"/>
     <use xlink:href="#mabd970eed8" x="81.328944" y="65.838565"/>
     <use xlink:href="#mabd970eed8" x="75.471366" y="82.383784"/>
     <use xlink:href="#mabd970eed8" x="86.42691" y="97.072415"/>
     <use xlink:href="#mabd970eed8" x="78.45016" y="205.977629"/>
     <use xlink:href="#mabd970eed8" x="84.032705" y="167.271216"/>
     <use xlink:href="#mabd970eed8" x="77.587481" y="105.558924"/>
     <use xlink:href="#mabd970eed8" x="78.190529" y="99.195551"/>
     <use xlink:href="#mabd970eed8" x="84.268708" y="202.049281"/>
     <use xlink:href="#mabd970eed8" x="82.727072" y="93.239283"/>
     <use xlink:href="#mabd970eed8" x="86.291569" y="99.535743"/>
     <use xlink:href="#mabd970eed8" x="86.249549" y="83.96678"/>
     <use xlink:href="#mabd970eed8" x="80.783793" y="89.897455"/>
     <use xlink:href="#mabd970eed8" x="82.192462" y="86.411189"/>
     <use xlink:href="#mabd970eed8" x="82.775114" y="78.419874"/>
     <use xlink:href="#mabd970eed8" x="87.406206" y="75.655626"/>
     <use xlink:href="#mabd970eed8" x="82.635539" y="204.522587"/>
     <use xlink:href="#mabd970eed8" x="86.218592" y="69.926993"/>
     <use xlink:href="#mabd970eed8" x="83.904826" y="91.678509"/>
     <use xlink:href="#mabd970eed8" x="85.262797" y="95.441349"/>
     <use xlink:href="#mabd970eed8" x="74.141871" y="75.63446"/>
     <use xlink:href="#mabd970eed8" x="81.251551" y="217.812081"/>
     <use xlink:href="#mabd970eed8" x="72.584139" y="66.888918"/>
     <use xlink:href="#mabd970eed8" x="76.299771" y="77.675389"/>
     <use xlink:href="#mabd970eed8" x="78.77327" y="69.072226"/>
     <use xlink:href="#mabd970eed8" x="73.329339" y="116.112181"/>
     <use xlink:href="#mabd970eed8" x="75.144499" y="81.934612"/>
     <use xlink:href="#mabd970eed8" x="80.925689" y="76.241947"/>
     <use xlink:href="#mabd970eed8" x="86.756931" y="76.17054"/>
     <use xlink:href="#mabd970eed8" x="82.316548" y="113.763336"/>
     <use xlink:href="#mabd970eed8" x="78.692522" y="93.128793"/>
     <use xlink:href="#mabd970eed8" x="77.111227" y="67.96019"/>
     <use xlink:href="#mabd970eed8" x="85.754356" y="157.590748"/>
     <use xlink:href="#mabd970eed8" x="73.422901" y="202.527402"/>
     <use xlink:href="#mabd970eed8" x="79.119644" y="81.330826"/>
     <use xlink:href="#mabd970eed8" x="76.100326" y="83.938289"/>
     <use xlink:href="#mabd970eed8" x="80.49967" y="77.47531"/>
     <use xlink:href="#mabd970eed8" x="74.00771" y="78.581399"/>
     <use xlink:href="#mabd970eed8" x="86.837354" y="148.383733"/>
     <use xlink:href="#mabd970eed8" x="76.945322" y="73.177684"/>
     <use xlink:href="#mabd970eed8" x="77.221712" y="91.444313"/>
     <use xlink:href="#mabd970eed8" x="87.599214" y="144.448059"/>
     <use xlink:href="#mabd970eed8" x="74.82646" y="111.642835"/>
     <use xlink:href="#mabd970eed8" x="82.684454" y="77.852282"/>
     <use xlink:href="#mabd970eed8" x="83.94564" y="82.327765"/>
     <use xlink:href="#mabd970eed8" x="85.896627" y="73.091834"/>
     <use xlink:href="#mabd970eed8" x="75.927062" y="88.148063"/>
     <use xlink:href="#mabd970eed8" x="78.275172" y="91.289246"/>
     <use xlink:href="#mabd970eed8" x="84.983652" y="89.674341"/>
     <use xlink:href="#mabd970eed8" x="86.02347" y="78.308252"/>
     <use xlink:href="#mabd970eed8" x="83.100017" y="90.37136"/>
     <use xlink:href="#mabd970eed8" x="78.317609" y="111.934334"/>
     <use xlink:href="#mabd970eed8" x="86.899334" y="212.527194"/>
     <use xlink:href="#mabd970eed8" x="83.530729" y="93.813558"/>
     <use xlink:href="#mabd970eed8" x="76.174362" y="83.396771"/>
     <use xlink:href="#mabd970eed8" x="73.855649" y="219.630679"/>
     <use xlink:href="#mabd970eed8" x="74.406231" y="75.934947"/>
     <use xlink:href="#mabd970eed8" x="82.509753" y="91.488513"/>
     <use xlink:href="#mabd970eed8" x="80.293011" y="198.04212"/>
     <use xlink:href="#mabd970eed8" x="73.156314" y="88.231874"/>
     <use xlink:href="#mabd970eed8" x="76.099962" y="74.251978"/>
     <use xlink:href="#mabd970eed8" x="77.785369" y="79.838117"/>
     <use xlink:href="#mabd970eed8" x="83.200081" y="88.519447"/>
     <use xlink:href="#mabd970eed8" x="84.540901" y="187.715059"/>
     <use xlink:href="#mabd970eed8" x="80.513231" y="168.414915"/>
     <use xlink:href="#mabd970eed8" x="76.218245" y="194.676828"/>
     <use xlink:href="#mabd970eed8" x="75.878011" y="82.181081"/>
     <use xlink:href="#mabd970eed8" x="80.798547" y="86.467171"/>
     <use xlink:href="#mabd970eed8" x="78.994371" y="104.063053"/>
     <use xlink:href="#mabd970eed8" x="77.59717" y="221.236738"/>
     <use xlink:href="#mabd970eed8" x="77.610361" y="95.429633"/>
     <use xlink:href="#mabd970eed8" x="75.895824" y="88.769824"/>
     <use xlink:href="#mabd970eed8" x="72.438099" y="75.37959"/>
     <use xlink:href="#mabd970eed8" x="83.714237" y="190.392461"/>
     <use xlink:href="#mabd970eed8" x="87.442469" y="76.942214"/>
     <use xlink:href="#mabd970eed8" x="77.804614" y="79.167928"/>
     <use xlink:href="#mabd970eed8" x="82.076037" y="107.702073"/>
     <use xlink:href="#mabd970eed8" x="77.013699" y="178.714372"/>
     <use xlink:href="#mabd970eed8" x="82.369466" y="77.59762"/>
     <use xlink:href="#mabd970eed8" x="81.508505" y="70.814424"/>
     <use xlink:href="#mabd970eed8" x="79.025203" y="208.753536"/>
     <use xlink:href="#mabd970eed8" x="87.386145" y="69.447518"/>
     <use xlink:href="#mabd970eed8" x="75.924945" y="177.949775"/>
     <use xlink:href="#mabd970eed8" x="83.167942" y="87.937317"/>
     <use xlink:href="#mabd970eed8" x="74.598745" y="90.132425"/>
     <use xlink:href="#mabd970eed8" x="83.195099" y="215.719638"/>
     <use xlink:href="#mabd970eed8" x="83.632669" y="68.551723"/>
     <use xlink:href="#mabd970eed8" x="85.477665" y="127.460211"/>
     <use xlink:href="#mabd970eed8" x="85.206983" y="96.743985"/>
     <use xlink:href="#mabd970eed8" x="80.616501" y="148.029182"/>
     <use xlink:href="#mabd970eed8" x="84.323314" y="80.434068"/>
     <use xlink:href="#mabd970eed8" x="87.563342" y="72.448096"/>
     <use xlink:href="#mabd970eed8" x="77.648651" y="75.524839"/>
     <use xlink:href="#mabd970eed8" x="77.329864" y="110.294356"/>
     <use xlink:href="#mabd970eed8" x="76.817879" y="84.470517"/>
     <use xlink:href="#mabd970eed8" x="76.896879" y="103.551159"/>
     <use xlink:href="#mabd970eed8" x="87.314507" y="82.049916"/>
     <use xlink:href="#mabd970eed8" x="75.145926" y="115.521356"/>
     <use xlink:href="#mabd970eed8" x="76.510332" y="203.769157"/>
     <use xlink:href="#mabd970eed8" x="73.260855" y="187.72804"/>
     <use xlink:href="#mabd970eed8" x="85.701775" y="80.919812"/>
     <use xlink:href="#mabd970eed8" x="85.730475" y="67.363711"/>
     <use xlink:href="#mabd970eed8" x="86.202989" y="73.743633"/>
     <use xlink:href="#mabd970eed8" x="72.872606" y="86.411189"/>
     <use xlink:href="#mabd970eed8" x="86.830943" y="77.043244"/>
     <use xlink:href="#mabd970eed8" x="82.848206" y="108.472415"/>
     <use xlink:href="#mabd970eed8" x="86.902995" y="176.977555"/>
     <use xlink:href="#mabd970eed8" x="82.425507" y="68.789469"/>
     <use xlink:href="#mabd970eed8" x="85.926173" y="96.412695"/>
     <use xlink:href="#mabd970eed8" x="78.581623" y="97.181272"/>
     <use xlink:href="#mabd970eed8" x="78.55637" y="73.849875"/>
     <use xlink:href="#mabd970eed8" x="72.700339" y="99.385141"/>
     <use xlink:href="#mabd970eed8" x="84.627432" y="219.984008"/>
     <use xlink:href="#mabd970eed8" x="85.834224" y="83.187158"/>
     <use xlink:href="#mabd970eed8" x="74.134912" y="77.1307"/>
     <use xlink:href="#mabd970eed8" x="77.462411" y="201.45713"/>
     <use xlink:href="#mabd970eed8" x="86.256514" y="61.533123"/>
     <use xlink:href="#mabd970eed8" x="85.435723" y="188.293149"/>
     <use xlink:href="#mabd970eed8" x="76.474341" y="103.269157"/>
     <use xlink:href="#mabd970eed8" x="87.074893" y="81.623175"/>
     <use xlink:href="#mabd970eed8" x="79.779282" y="80.357922"/>
     <use xlink:href="#mabd970eed8" x="80.825424" y="71.8492"/>
     <use xlink:href="#mabd970eed8" x="86.173316" y="92.516152"/>
     <use xlink:href="#mabd970eed8" x="72.823577" y="120.425213"/>
     <use xlink:href="#mabd970eed8" x="72.96468" y="104.183729"/>
     <use xlink:href="#mabd970eed8" x="75.097491" y="216.812302"/>
     <use xlink:href="#mabd970eed8" x="73.556469" y="205.546705"/>
     <use xlink:href="#mabd970eed8" x="79.519558" y="127.934259"/>
     <use xlink:href="#mabd970eed8" x="85.460761" y="213.407361"/>
     <use xlink:href="#mabd970eed8" x="78.21581" y="97.971902"/>
     <use xlink:href="#mabd970eed8" x="80.426876" y="67.595188"/>
     <use xlink:href="#mabd970eed8" x="72.707738" y="92.139123"/>
     <use xlink:href="#mabd970eed8" x="81.006103" y="74.388579"/>
     <use xlink:href="#mabd970eed8" x="80.141779" y="86.093503"/>
     <use xlink:href="#mabd970eed8" x="84.623452" y="147.932276"/>
     <use xlink:href="#mabd970eed8" x="78.033394" y="116.277916"/>
     <use xlink:href="#mabd970eed8" x="83.6719" y="84.308407"/>
     <use xlink:href="#mabd970eed8" x="79.602987" y="89.153234"/>
     <use xlink:href="#mabd970eed8" x="74.664295" y="62.92548"/>
     <use xlink:href="#mabd970eed8" x="75.904405" y="83.495121"/>
     <use xlink:href="#mabd970eed8" x="85.015253" y="192.593404"/>
     <use xlink:href="#mabd970eed8" x="82.197213" y="112.19738"/>
     <use xlink:href="#mabd970eed8" x="79.66879" y="113.796576"/>
     <use xlink:href="#mabd970eed8" x="74.527637" y="93.99639"/>
     <use xlink:href="#mabd970eed8" x="83.536866" y="81.278772"/>
     <use xlink:href="#mabd970eed8" x="74.96003" y="200.168909"/>
     <use xlink:href="#mabd970eed8" x="86.222517" y="89.502848"/>
     <use xlink:href="#mabd970eed8" x="72.980603" y="76.293661"/>
     <use xlink:href="#mabd970eed8" x="84.73212" y="163.865892"/>
     <use xlink:href="#mabd970eed8" x="75.005832" y="192.945888"/>
     <use xlink:href="#mabd970eed8" x="83.044912" y="86.465528"/>
     <use xlink:href="#mabd970eed8" x="83.803603" y="91.781825"/>
     <use xlink:href="#mabd970eed8" x="77.269757" y="92.275347"/>
     <use xlink:href="#mabd970eed8" x="75.678074" y="83.655211"/>
     <use xlink:href="#mabd970eed8" x="75.19461" y="205.293751"/>
     <use xlink:href="#mabd970eed8" x="83.611284" y="87.42025"/>
     <use xlink:href="#mabd970eed8" x="86.914848" y="215.837489"/>
     <use xlink:href="#mabd970eed8" x="72.85207" y="75.711116"/>
     <use xlink:href="#mabd970eed8" x="82.600502" y="199.117631"/>
     <use xlink:href="#mabd970eed8" x="74.715972" y="82.305958"/>
     <use xlink:href="#mabd970eed8" x="82.048235" y="96.731052"/>
     <use xlink:href="#mabd970eed8" x="74.591939" y="75.704961"/>
     <use xlink:href="#mabd970eed8" x="84.886487" y="81.973884"/>
     <use xlink:href="#mabd970eed8" x="77.627185" y="82.178664"/>
     <use xlink:href="#mabd970eed8" x="73.967794" y="90.534509"/>
     <use xlink:href="#mabd970eed8" x="81.825316" y="92.855023"/>
     <use xlink:href="#mabd970eed8" x="79.865327" y="76.591014"/>
     <use xlink:href="#mabd970eed8" x="80.136276" y="145.520597"/>
     <use xlink:href="#mabd970eed8" x="81.058809" y="203.635388"/>
     <use xlink:href="#mabd970eed8" x="74.092183" y="99.73737"/>
     <use xlink:href="#mabd970eed8" x="76.159234" y="104.40283"/>
     <use xlink:href="#mabd970eed8" x="74.775738" y="93.093977"/>
     <use xlink:href="#mabd970eed8" x="77.692593" y="66.930682"/>
     <use xlink:href="#mabd970eed8" x="85.156707" y="95.203235"/>
     <use xlink:href="#mabd970eed8" x="75.99766" y="196.960039"/>
     <use xlink:href="#mabd970eed8" x="79.421812" y="94.135427"/>
     <use xlink:href="#mabd970eed8" x="80.413746" y="68.243627"/>
     <use xlink:href="#mabd970eed8" x="72.614106" y="105.487574"/>
     <use xlink:href="#mabd970eed8" x="77.919023" y="68.825115"/>
     <use xlink:href="#mabd970eed8" x="73.850083" y="64.127218"/>
     <use xlink:href="#mabd970eed8" x="85.012566" y="78.244133"/>
     <use xlink:href="#mabd970eed8" x="86.253322" y="215.117861"/>
     <use xlink:href="#mabd970eed8" x="75.898363" y="146.481936"/>
     <use xlink:href="#mabd970eed8" x="85.692825" y="71.222757"/>
     <use xlink:href="#mabd970eed8" x="79.947977" y="97.108043"/>
     <use xlink:href="#mabd970eed8" x="73.925445" y="85.647314"/>
     <use xlink:href="#mabd970eed8" x="83.350331" y="107.60834"/>
     <use xlink:href="#mabd970eed8" x="79.9379" y="91.898526"/>
     <use xlink:href="#mabd970eed8" x="84.972545" y="82.372116"/>
     <use xlink:href="#mabd970eed8" x="77.742543" y="88.230194"/>
     <use xlink:href="#mabd970eed8" x="84.451357" y="91.591432"/>
     <use xlink:href="#mabd970eed8" x="74.022698" y="96.092478"/>
     <use xlink:href="#mabd970eed8" x="87.580121" y="206.007644"/>
     <use xlink:href="#mabd970eed8" x="78.511015" y="99.24583"/>
     <use xlink:href="#mabd970eed8" x="79.554958" y="74.75664"/>
     <use xlink:href="#mabd970eed8" x="87.351319" y="122.193429"/>
     <use xlink:href="#mabd970eed8" x="81.687176" y="81.403837"/>
     <use xlink:href="#mabd970eed8" x="74.791507" y="94.849864"/>
     <use xlink:href="#mabd970eed8" x="81.748099" y="81.171869"/>
     <use xlink:href="#mabd970eed8" x="78.038754" y="95.509216"/>
     <use xlink:href="#mabd970eed8" x="77.449955" y="101.387676"/>
     <use xlink:href="#mabd970eed8" x="74.898445" y="67.510565"/>
     <use xlink:href="#mabd970eed8" x="80.741698" y="76.74559"/>
     <use xlink:href="#mabd970eed8" x="80.868527" y="89.945789"/>
     <use xlink:href="#mabd970eed8" x="77.326193" y="79.273622"/>
     <use xlink:href="#mabd970eed8" x="83.941567" y="89.885503"/>
     <use xlink:href="#mabd970eed8" x="73.970042" y="84.692611"/>
     <use xlink:href="#mabd970eed8" x="76.605636" y="62.583003"/>
     <use xlink:href="#mabd970eed8" x="80.886212" y="95.924336"/>
     <use xlink:href="#mabd970eed8" x="76.372118" y="67.513605"/>
     <use xlink:href="#mabd970eed8" x="76.254351" y="67.794739"/>
     <use xlink:href="#mabd970eed8" x="72.392165" y="134.163503"/>
     <use xlink:href="#mabd970eed8" x="73.302286" y="80.747695"/>
     <use xlink:href="#mabd970eed8" x="74.99316" y="72.93486"/>
     <use xlink:href="#mabd970eed8" x="75.484692" y="148.174421"/>
     <use xlink:href="#mabd970eed8" x="81.044656" y="81.677513"/>
     <use xlink:href="#mabd970eed8" x="79.354999" y="205.250259"/>
     <use xlink:href="#mabd970eed8" x="78.093162" y="173.442861"/>
     <use xlink:href="#mabd970eed8" x="81.756208" y="91.566943"/>
     <use xlink:href="#mabd970eed8" x="73.444399" y="110.034973"/>
     <use xlink:href="#mabd970eed8" x="81.874038" y="86.549"/>
     <use xlink:href="#mabd970eed8" x="73.301082" y="73.180743"/>
     <use xlink:href="#mabd970eed8" x="74.496849" y="68.727257"/>
     <use xlink:href="#mabd970eed8" x="83.195381" y="204.625341"/>
     <use xlink:href="#mabd970eed8" x="82.910717" y="68.191724"/>
     <use xlink:href="#mabd970eed8" x="83.711296" y="180.893248"/>
     <use xlink:href="#mabd970eed8" x="80.163678" y="120.903084"/>
     <use xlink:href="#mabd970eed8" x="80.653818" y="90.083864"/>
     <use xlink:href="#mabd970eed8" x="74.785423" y="132.718422"/>
     <use xlink:href="#mabd970eed8" x="72.656286" y="86.036464"/>
     <use xlink:href="#mabd970eed8" x="82.078624" y="75.934947"/>
     <use xlink:href="#mabd970eed8" x="86.681029" y="78.553889"/>
     <use xlink:href="#mabd970eed8" x="75.478818" y="201.027042"/>
     <use xlink:href="#mabd970eed8" x="87.051613" y="87.744356"/>
     <use xlink:href="#mabd970eed8" x="79.474525" y="89.987251"/>
     <use xlink:href="#mabd970eed8" x="82.709225" y="219.10104"/>
     <use xlink:href="#mabd970eed8" x="76.201858" y="79.225212"/>
     <use xlink:href="#mabd970eed8" x="78.199084" y="103.315415"/>
     <use xlink:href="#mabd970eed8" x="79.923458" y="105.451672"/>
     <use xlink:href="#mabd970eed8" x="78.461664" y="222.207738"/>
     <use xlink:href="#mabd970eed8" x="84.870351" y="125.461849"/>
     <use xlink:href="#mabd970eed8" x="84.232913" y="87.535063"/>
     <use xlink:href="#mabd970eed8" x="85.78785" y="125.952342"/>
     <use xlink:href="#mabd970eed8" x="75.082414" y="122.665513"/>
     <use xlink:href="#mabd970eed8" x="76.976135" y="102.117774"/>
     <use xlink:href="#mabd970eed8" x="87.047033" y="101.907972"/>
     <use xlink:href="#mabd970eed8" x="78.727298" y="72.271429"/>
     <use xlink:href="#mabd970eed8" x="80.288896" y="78.835023"/>
     <use xlink:href="#mabd970eed8" x="84.391314" y="112.873488"/>
     <use xlink:href="#mabd970eed8" x="79.550938" y="111.709889"/>
     <use xlink:href="#mabd970eed8" x="77.947939" y="66.803464"/>
     <use xlink:href="#mabd970eed8" x="79.526553" y="89.672076"/>
     <use xlink:href="#mabd970eed8" x="77.653134" y="68.43538"/>
     <use xlink:href="#mabd970eed8" x="81.41671" y="92.343998"/>
     <use xlink:href="#mabd970eed8" x="84.128742" y="83.698561"/>
     <use xlink:href="#mabd970eed8" x="82.612829" y="207.842585"/>
     <use xlink:href="#mabd970eed8" x="75.766446" y="84.81728"/>
     <use xlink:href="#mabd970eed8" x="78.20886" y="95.540123"/>
     <use xlink:href="#mabd970eed8" x="79.182681" y="80.203761"/>
     <use xlink:href="#mabd970eed8" x="83.730942" y="84.567526"/>
     <use xlink:href="#mabd970eed8" x="84.522342" y="167.732019"/>
     <use xlink:href="#mabd970eed8" x="73.048856" y="74.613902"/>
     <use xlink:href="#mabd970eed8" x="78.514776" y="92.242873"/>
     <use xlink:href="#mabd970eed8" x="74.352019" y="202.221742"/>
     <use xlink:href="#mabd970eed8" x="82.268189" y="86.841877"/>
     <use xlink:href="#mabd970eed8" x="82.067237" y="94.386437"/>
     <use xlink:href="#mabd970eed8" x="74.643011" y="83.435213"/>
     <use xlink:href="#mabd970eed8" x="73.976854" y="76.222425"/>
     <use xlink:href="#mabd970eed8" x="83.317908" y="95.168287"/>
     <use xlink:href="#mabd970eed8" x="79.049046" y="145.276016"/>
     <use xlink:href="#mabd970eed8" x="84.401955" y="199.940301"/>
     <use xlink:href="#mabd970eed8" x="83.317993" y="84.117108"/>
     <use xlink:href="#mabd970eed8" x="77.746345" y="76.660646"/>
     <use xlink:href="#mabd970eed8" x="74.510757" y="126.954765"/>
     <use xlink:href="#mabd970eed8" x="80.845926" y="83.814205"/>
     <use xlink:href="#mabd970eed8" x="77.739812" y="74.604763"/>
     <use xlink:href="#mabd970eed8" x="86.3123" y="94.138297"/>
     <use xlink:href="#mabd970eed8" x="74.986784" y="96.782908"/>
     <use xlink:href="#mabd970eed8" x="83.962448" y="83.164067"/>
     <use xlink:href="#mabd970eed8" x="80.191336" y="79.772261"/>
     <use xlink:href="#mabd970eed8" x="82.986511" y="122.149513"/>
     <use xlink:href="#mabd970eed8" x="84.040717" y="112.2409"/>
     <use xlink:href="#mabd970eed8" x="80.846108" y="217.950467"/>
     <use xlink:href="#mabd970eed8" x="85.218559" y="91.055446"/>
     <use xlink:href="#mabd970eed8" x="80.489146" y="100.233111"/>
     <use xlink:href="#mabd970eed8" x="79.058928" y="155.771573"/>
     <use xlink:href="#mabd970eed8" x="78.81969" y="97.897304"/>
     <use xlink:href="#mabd970eed8" x="75.486855" y="74.11885"/>
     <use xlink:href="#mabd970eed8" x="77.896014" y="77.643292"/>
     <use xlink:href="#mabd970eed8" x="75.42687" y="77.091164"/>
     <use xlink:href="#mabd970eed8" x="77.968038" y="63.937599"/>
     <use xlink:href="#mabd970eed8" x="86.249359" y="96.674391"/>
     <use xlink:href="#mabd970eed8" x="79.621692" y="88.136584"/>
     <use xlink:href="#mabd970eed8" x="81.606181" y="151.301264"/>
     <use xlink:href="#mabd970eed8" x="72.972436" y="144.944631"/>
     <use xlink:href="#mabd970eed8" x="86.333442" y="203.304107"/>
     <use xlink:href="#mabd970eed8" x="78.381448" y="61.597336"/>
     <use xlink:href="#mabd970eed8" x="86.80464" y="84.295096"/>
     <use xlink:href="#mabd970eed8" x="80.773121" y="140.150726"/>
     <use xlink:href="#mabd970eed8" x="74.0583" y="93.189551"/>
     <use xlink:href="#mabd970eed8" x="80.821591" y="80.632693"/>
     <use xlink:href="#mabd970eed8" x="75.342423" y="139.56347"/>
     <use xlink:href="#mabd970eed8" x="79.904262" y="75.867939"/>
     <use xlink:href="#mabd970eed8" x="74.724893" y="80.29133"/>
     <use xlink:href="#mabd970eed8" x="78.128235" y="81.922962"/>
     <use xlink:href="#mabd970eed8" x="74.342503" y="86.015506"/>
     <use xlink:href="#mabd970eed8" x="82.864144" y="181.995254"/>
     <use xlink:href="#mabd970eed8" x="73.294136" y="86.59858"/>
     <use xlink:href="#mabd970eed8" x="73.572593" y="72.217374"/>
     <use xlink:href="#mabd970eed8" x="86.245397" y="141.129001"/>
     <use xlink:href="#mabd970eed8" x="76.46011" y="92.014869"/>
    </g>
   </g>
   <g id="PathCollection_2">
    <g clip-path="url(#p845061c6ce)">
     <use xlink:href="#mabd970eed8" x="152.213921" y="218.570872"/>
     <use xlink:href="#mabd970eed8" x="155.875183" y="126.364913"/>
     <use xlink:href="#mabd970eed8" x="159.664766" y="149.661419"/>
     <use xlink:href="#mabd970eed8" x="150.314336" y="169.122762"/>
     <use xlink:href="#mabd970eed8" x="152.860532" y="133.711934"/>
     <use xlink:href="#mabd970eed8" x="152.351306" y="131.921231"/>
     <use xlink:href="#mabd970eed8" x="154.373488" y="137.041603"/>
     <use xlink:href="#mabd970eed8" x="153.097639" y="130.771047"/>
     <use xlink:href="#mabd970eed8" x="160.530977" y="198.770175"/>
     <use xlink:href="#mabd970eed8" x="149.432105" y="146.78347"/>
     <use xlink:href="#mabd970eed8" x="149.693254" y="167.597956"/>
     <use xlink:href="#mabd970eed8" x="155.740885" y="173.996372"/>
     <use xlink:href="#mabd970eed8" x="155.344812" y="123.749766"/>
     <use xlink:href="#mabd970eed8" x="161.74551" y="170.981765"/>
     <use xlink:href="#mabd970eed8" x="158.240737" y="193.230642"/>
     <use xlink:href="#mabd970eed8" x="149.189932" y="160.581509"/>
     <use xlink:href="#mabd970eed8" x="160.482574" y="199.378903"/>
     <use xlink:href="#mabd970eed8" x="159.300636" y="123.761453"/>
     <use xlink:href="#mabd970eed8" x="158.332164" y="132.623395"/>
     <use xlink:href="#mabd970eed8" x="151.185113" y="118.76374"/>
     <use xlink:href="#mabd970eed8" x="154.722736" y="101.265235"/>
     <use xlink:href="#mabd970eed8" x="161.70525" y="128.723349"/>
     <use xlink:href="#mabd970eed8" x="159.782215" y="95.628287"/>
     <use xlink:href="#mabd970eed8" x="149.79873" y="196.427584"/>
     <use xlink:href="#mabd970eed8" x="161.598933" y="131.255818"/>
     <use xlink:href="#mabd970eed8" x="155.154218" y="176.014663"/>
     <use xlink:href="#mabd970eed8" x="150.372116" y="169.926731"/>
     <use xlink:href="#mabd970eed8" x="157.288778" y="160.887971"/>
     <use xlink:href="#mabd970eed8" x="150.651102" y="156.705828"/>
     <use xlink:href="#mabd970eed8" x="164.22109" y="117.170237"/>
     <use xlink:href="#mabd970eed8" x="160.652435" y="144.108622"/>
     <use xlink:href="#mabd970eed8" x="162.8295" y="132.243213"/>
     <use xlink:href="#mabd970eed8" x="161.912719" y="219.776337"/>
     <use xlink:href="#mabd970eed8" x="164.150577" y="189.739363"/>
     <use xlink:href="#mabd970eed8" x="159.572964" y="104.494184"/>
     <use xlink:href="#mabd970eed8" x="152.993955" y="167.662896"/>
     <use xlink:href="#mabd970eed8" x="152.666211" y="125.763251"/>
     <use xlink:href="#mabd970eed8" x="158.976041" y="137.634844"/>
     <use xlink:href="#mabd970eed8" x="157.68898" y="138.026977"/>
     <use xlink:href="#mabd970eed8" x="164.032981" y="164.684522"/>
     <use xlink:href="#mabd970eed8" x="163.701671" y="130.583042"/>
     <use xlink:href="#mabd970eed8" x="153.023367" y="86.398256"/>
     <use xlink:href="#mabd970eed8" x="151.340256" y="81.130577"/>
     <use xlink:href="#mabd970eed8" x="153.268767" y="223.360844"/>
     <use xlink:href="#mabd970eed8" x="152.694405" y="111.12387"/>
     <use xlink:href="#mabd970eed8" x="162.848231" y="173.805927"/>
     <use xlink:href="#mabd970eed8" x="154.404273" y="216.889352"/>
     <use xlink:href="#mabd970eed8" x="162.805615" y="116.230185"/>
     <use xlink:href="#mabd970eed8" x="158.811588" y="224.901464"/>
     <use xlink:href="#mabd970eed8" x="161.021713" y="168.457104"/>
     <use xlink:href="#mabd970eed8" x="150.086803" y="115.704027"/>
     <use xlink:href="#mabd970eed8" x="152.384343" y="166.927738"/>
     <use xlink:href="#mabd970eed8" x="160.388177" y="126.102915"/>
     <use xlink:href="#mabd970eed8" x="163.926054" y="103.444634"/>
     <use xlink:href="#mabd970eed8" x="154.327655" y="134.720059"/>
     <use xlink:href="#mabd970eed8" x="161.351367" y="152.987887"/>
     <use xlink:href="#mabd970eed8" x="160.388301" y="116.644985"/>
     <use xlink:href="#mabd970eed8" x="161.757623" y="169.366899"/>
     <use xlink:href="#mabd970eed8" x="157.834527" y="172.999126"/>
    </g>
   </g>
   <g id="text_10">
    <text style="font-size: 13px; font-family: 'Helvetica'; text-anchor: middle" x="118.349063" y="45.250755" transform="rotate(-0 118.349063 45.250755)">p = 1.11e-21</text>
   </g>
   <g id="text_11">
    <text style="font-weight: 700; font-size: 20px; font-family: 'Helvetica'; text-anchor: middle" x="118.349063" y="21.546875" transform="rotate(-0 118.349063 21.546875)">NKG7</text>
   </g>
  </g>
 </g>
 <defs>
  <clipPath id="p845061c6ce">
   <rect x="41.578125" y="27.546875" width="153.541875" height="234.264375"/>
  </clipPath>
 </defs>
</svg>
